<svg width="76" height="85" viewBox="0 0 76 85" fill="none" xmlns="http://www.w3.org/2000/svg">
<path d="M75.1005 23.9458C75.1218 21.3652 75.1432 18.7847 75.1432 16.2077V12.8263C75.1432 11.851 74.7303 10.9113 74.0077 10.2528C73.3635 9.66552 72.552 9.33806 71.3382 9.3523C57.8303 10.5945 48.01 7.92854 39.8554 0.834677C38.5918 -0.279412 36.5345 -0.275853 35.278 0.831117C28.4582 6.77174 20.0866 9.66196 9.6789 9.66196C7.82445 9.66196 5.85967 9.57298 3.55675 9.38789C2.66334 9.38789 1.81977 9.71535 1.18263 10.3062C0.467197 10.9647 0.0578671 11.9008 0.0578671 12.869V16.3394C0.0578671 18.9804 0.0436299 21.6251 0.0293924 24.2697C-0.00620153 30.5413 -0.0453548 37.653 0.146852 44.5725C0.232278 47.4413 0.709235 51.6912 2.50317 55.6671C8.4865 68.8938 19.4459 78.3724 36.0006 84.6334C36.6235 84.8754 37.3176 85 38.065 85C39.0795 85 40.1651 84.7686 41.1083 84.3415C53.349 78.9419 61.9521 72.3321 68.1739 63.5404C73.1713 56.4822 75.4742 49.3064 75.2073 41.6004C75.0044 35.6348 75.0542 29.4273 75.1005 23.9458ZM65.273 61.4796C59.4392 69.7231 51.3024 75.952 39.6668 81.0847C38.8872 81.4335 37.8728 81.5403 37.2748 81.3089C21.6313 75.3932 11.3233 66.5268 5.75289 54.2006C4.19744 50.7622 3.78099 47.0071 3.7098 44.4692C3.51403 37.6067 3.55319 30.5307 3.58878 24.2875C3.60302 21.6393 3.61726 18.9876 3.61726 16.3394L3.53895 12.9437C17.8406 14.1895 28.8391 11.1783 37.5169 3.52202C45.0058 10.0357 54.1072 13.2036 65.3477 13.2036C67.3552 13.2036 69.4838 13.1039 71.5838 12.8334V16.2148C71.5838 18.7847 71.5624 21.351 71.5411 23.9244C71.4948 29.4379 71.445 35.6847 71.6514 41.7285C71.8935 48.6195 69.8077 55.0833 65.273 61.4796Z" fill="#031126" fill-opacity="0.75"/>
</svg>
